# xmcd CD database file
#
# Track frame offsets:
#	150
#	36157
#	99397
#	142495
#	179884
#
# Disc length: 2532 seconds
#
# Revision: 0
# Processed by: cddbd v1.5.2PL0 Copyright (c) Steve Scherf et al.
# Submitted via: CDex 1.70beta2
#
DISCID=4c09e205
DTITLE=Claude Williamson - Blue Minor
DYEAR=1985
DGENRE=Jazz
TTITLE0=Blue Minor
TTITLE1=Sonny's Crib
TTITLE2=Cool Struttin'
TTITLE3=Minor Meeting
TTITLE4=No More Clark Bars
EXTD=YEAR: 1985
EXTT0=
EXTT1=
EXTT2=
EXTT3=
EXTT4=
PLAYORDER=
